{
    "asset" : {
        "generator" : "Khronos glTF Blender I/O v1.1.45",
        "version" : "2.0"
    },
    "scene" : 0,
    "scenes" : [
        {
            "name" : "Scene",
            "nodes" : [
                8
            ]
        }
    ],
    "nodes" : [
        {
            "mesh" : 0,
            "name" : "bras_droit",
            "rotation" : [
                0,
                0,
                0.4226182699203491,
                0.9063077569007874
            ],
            "translation" : [
                -4.0301947593688965,
                -2.0932343006134033,
                0.514284074306488
            ]
        },
        {
            "mesh" : 1,
            "name" : "bras_gauche",
            "rotation" : [
                0,
                0,
                0.4226182699203491,
                0.9063077569007874
            ],
            "translation" : [
                4.112539768218994,
                -2.084120035171509,
                0.15756194293498993
            ]
        },
        {
            "children" : [
                0,
                1
            ],
            "name" : "bras",
            "translation" : [
                0.01956877112388611,
                1.9300792217254639,
                -16.940155029296875
            ]
        },
        {
            "mesh" : 2,
            "name" : "jambe_droite",
            "rotation" : [
                0,
                0,
                0.4226182699203491,
                0.9063077569007874
            ],
            "translation" : [
                -2.5417256355285645,
                -0.048928167670965195,
                0.0770069807767868
            ]
        },
        {
            "mesh" : 3,
            "name" : "jambe_gauche",
            "rotation" : [
                0,
                0,
                0.4226182699203491,
                0.9063077569007874
            ],
            "translation" : [
                2.5216598510742188,
                -0.048928167670965195,
                0.09270370006561279
            ]
        },
        {
            "children" : [
                3,
                4
            ],
            "name" : "jambes",
            "translation" : [
                0.15725064277648926,
                0.3790246844291687,
                -9.804295539855957
            ]
        },
        {
            "mesh" : 4,
            "name" : "robot_corps",
            "rotation" : [
                0,
                0,
                0.4226182699203491,
                0.9063077569007874
            ],
            "translation" : [
                0.005311727989464998,
                -0.502232551574707,
                -14.367269515991211
            ]
        },
        {
            "mesh" : 5,
            "name" : "robot_tete_1",
            "rotation" : [
                0,
                0,
                0.4226182699203491,
                0.9063077569007874
            ],
            "translation" : [
                0.03572222217917442,
                -0.504776120185852,
                -20.703962326049805
            ]
        },
        {
            "children" : [
                2,
                5,
                6,
                7
            ],
            "name" : "salon_robot",
            "rotation" : [
                0.5,
                0.5,
                -0.5,
                0.4999999701976776
            ],
            "scale" : [
                0.4997251033782959,
                0.4997251033782959,
                0.4997251033782959
            ]
        }
    ],
    "meshes" : [
        {
            "name" : "Mesh.002",
            "primitives" : [
                {
                    "attributes" : {
                        "POSITION" : 0,
                        "NORMAL" : 1,
                        "TEXCOORD_0" : 2
                    },
                    "indices" : 3
                }
            ]
        },
        {
            "name" : "Mesh.003",
            "primitives" : [
                {
                    "attributes" : {
                        "POSITION" : 4,
                        "NORMAL" : 5,
                        "TEXCOORD_0" : 6
                    },
                    "indices" : 7
                }
            ]
        },
        {
            "name" : "Mesh",
            "primitives" : [
                {
                    "attributes" : {
                        "POSITION" : 8,
                        "NORMAL" : 9,
                        "TEXCOORD_0" : 10
                    },
                    "indices" : 11
                }
            ]
        },
        {
            "name" : "Mesh.001",
            "primitives" : [
                {
                    "attributes" : {
                        "POSITION" : 12,
                        "NORMAL" : 13,
                        "TEXCOORD_0" : 14
                    },
                    "indices" : 15
                }
            ]
        },
        {
            "name" : "Mesh.005",
            "primitives" : [
                {
                    "attributes" : {
                        "POSITION" : 16,
                        "NORMAL" : 17,
                        "TEXCOORD_0" : 18
                    },
                    "indices" : 19
                }
            ]
        },
        {
            "name" : "Mesh.004",
            "primitives" : [
                {
                    "attributes" : {
                        "POSITION" : 20,
                        "NORMAL" : 21,
                        "TEXCOORD_0" : 22
                    },
                    "indices" : 23
                }
            ]
        }
    ],
    "accessors" : [
        {
            "bufferView" : 0,
            "componentType" : 5126,
            "count" : 3885,
            "max" : [
                4.972681045532227,
                5.822861671447754,
                7.972245216369629
            ],
            "min" : [
                -2.202486753463745,
                -0.5954338908195496,
                -1.6145083904266357
            ],
            "type" : "VEC3"
        },
        {
            "bufferView" : 1,
            "componentType" : 5126,
            "count" : 3885,
            "type" : "VEC3"
        },
        {
            "bufferView" : 2,
            "componentType" : 5126,
            "count" : 3885,
            "type" : "VEC2"
        },
        {
            "bufferView" : 3,
            "componentType" : 5123,
            "count" : 14532,
            "type" : "SCALAR"
        },
        {
            "bufferView" : 4,
            "componentType" : 5126,
            "count" : 3885,
            "max" : [
                6.327902317047119,
                4.193592548370361,
                8.328967094421387
            ],
            "min" : [
                -0.7640973925590515,
                -2.144113302230835,
                -1.2577862739562988
            ],
            "type" : "VEC3"
        },
        {
            "bufferView" : 5,
            "componentType" : 5126,
            "count" : 3885,
            "type" : "VEC3"
        },
        {
            "bufferView" : 6,
            "componentType" : 5126,
            "count" : 3885,
            "type" : "VEC2"
        },
        {
            "bufferView" : 7,
            "componentType" : 5123,
            "count" : 14532,
            "type" : "SCALAR"
        },
        {
            "bufferView" : 8,
            "componentType" : 5126,
            "count" : 751,
            "max" : [
                3.592148542404175,
                3.4523561000823975,
                9.987232208251953
            ],
            "min" : [
                -3.592148542404175,
                -3.4523561000823975,
                -0.05465357378125191
            ],
            "type" : "VEC3"
        },
        {
            "bufferView" : 9,
            "componentType" : 5126,
            "count" : 751,
            "type" : "VEC3"
        },
        {
            "bufferView" : 10,
            "componentType" : 5126,
            "count" : 751,
            "type" : "VEC2"
        },
        {
            "bufferView" : 11,
            "componentType" : 5123,
            "count" : 2292,
            "type" : "SCALAR"
        },
        {
            "bufferView" : 12,
            "componentType" : 5126,
            "count" : 751,
            "max" : [
                3.592148542404175,
                3.4523561000823975,
                9.971535682678223
            ],
            "min" : [
                -3.592148542404175,
                -3.4523561000823975,
                -0.0703502967953682
            ],
            "type" : "VEC3"
        },
        {
            "bufferView" : 13,
            "componentType" : 5126,
            "count" : 751,
            "type" : "VEC3"
        },
        {
            "bufferView" : 14,
            "componentType" : 5126,
            "count" : 751,
            "type" : "VEC2"
        },
        {
            "bufferView" : 15,
            "componentType" : 5123,
            "count" : 2292,
            "type" : "SCALAR"
        },
        {
            "bufferView" : 16,
            "componentType" : 5126,
            "count" : 4796,
            "max" : [
                4.43894624710083,
                4.660808563232422,
                4.8038129806518555
            ],
            "min" : [
                -4.43894624710083,
                -4.660808563232422,
                -8.38036823272705
            ],
            "type" : "VEC3"
        },
        {
            "bufferView" : 17,
            "componentType" : 5126,
            "count" : 4796,
            "type" : "VEC3"
        },
        {
            "bufferView" : 18,
            "componentType" : 5126,
            "count" : 4796,
            "type" : "VEC2"
        },
        {
            "bufferView" : 19,
            "componentType" : 5123,
            "count" : 16572,
            "type" : "SCALAR"
        },
        {
            "bufferView" : 20,
            "componentType" : 5126,
            "count" : 4502,
            "max" : [
                2.864210844039917,
                2.950483798980713,
                1.7999999523162842
            ],
            "min" : [
                -2.864210844039917,
                -2.950483798980713,
                -1.7999999523162842
            ],
            "type" : "VEC3"
        },
        {
            "bufferView" : 21,
            "componentType" : 5126,
            "count" : 4502,
            "type" : "VEC3"
        },
        {
            "bufferView" : 22,
            "componentType" : 5126,
            "count" : 4502,
            "type" : "VEC2"
        },
        {
            "bufferView" : 23,
            "componentType" : 5123,
            "count" : 15972,
            "type" : "SCALAR"
        }
    ],
    "bufferViews" : [
        {
            "buffer" : 0,
            "byteLength" : 46620,
            "byteOffset" : 0
        },
        {
            "buffer" : 0,
            "byteLength" : 46620,
            "byteOffset" : 46620
        },
        {
            "buffer" : 0,
            "byteLength" : 31080,
            "byteOffset" : 93240
        },
        {
            "buffer" : 0,
            "byteLength" : 29064,
            "byteOffset" : 124320
        },
        {
            "buffer" : 0,
            "byteLength" : 46620,
            "byteOffset" : 153384
        },
        {
            "buffer" : 0,
            "byteLength" : 46620,
            "byteOffset" : 200004
        },
        {
            "buffer" : 0,
            "byteLength" : 31080,
            "byteOffset" : 246624
        },
        {
            "buffer" : 0,
            "byteLength" : 29064,
            "byteOffset" : 277704
        },
        {
            "buffer" : 0,
            "byteLength" : 9012,
            "byteOffset" : 306768
        },
        {
            "buffer" : 0,
            "byteLength" : 9012,
            "byteOffset" : 315780
        },
        {
            "buffer" : 0,
            "byteLength" : 6008,
            "byteOffset" : 324792
        },
        {
            "buffer" : 0,
            "byteLength" : 4584,
            "byteOffset" : 330800
        },
        {
            "buffer" : 0,
            "byteLength" : 9012,
            "byteOffset" : 335384
        },
        {
            "buffer" : 0,
            "byteLength" : 9012,
            "byteOffset" : 344396
        },
        {
            "buffer" : 0,
            "byteLength" : 6008,
            "byteOffset" : 353408
        },
        {
            "buffer" : 0,
            "byteLength" : 4584,
            "byteOffset" : 359416
        },
        {
            "buffer" : 0,
            "byteLength" : 57552,
            "byteOffset" : 364000
        },
        {
            "buffer" : 0,
            "byteLength" : 57552,
            "byteOffset" : 421552
        },
        {
            "buffer" : 0,
            "byteLength" : 38368,
            "byteOffset" : 479104
        },
        {
            "buffer" : 0,
            "byteLength" : 33144,
            "byteOffset" : 517472
        },
        {
            "buffer" : 0,
            "byteLength" : 54024,
            "byteOffset" : 550616
        },
        {
            "buffer" : 0,
            "byteLength" : 54024,
            "byteOffset" : 604640
        },
        {
            "buffer" : 0,
            "byteLength" : 36016,
            "byteOffset" : 658664
        },
        {
            "buffer" : 0,
            "byteLength" : 31944,
            "byteOffset" : 694680
        }
    ],
    "buffers" : [
        {
            "byteLength" : 726624,
            "uri" : "data:application/octet-stream;base64,"
        }
    ]
}
