<svg width="182" height="116" fill="none" xmlns="http://www.w3.org/2000/svg"><path fill-rule="evenodd" clip-rule="evenodd" d="M34.596 37.596a3 3 0 0 1 3-3h140.527a3 3 0 0 1 3 3v75.403a3 3 0 0 1-3 3H37.596a3 3 0 0 1-3-3V37.596Zm12.21 43.807a6.105 6.105 0 1 1 0-12.21 6.105 6.105 0 0 1 0 12.21ZM62.018 40.7a3 3 0 0 0-3 3v63.193a3 3 0 0 0 3 3h107.965a3 3 0 0 0 3-3V43.7a3 3 0 0 0-3-3H62.017Z" fill="#3C365A"/><path d="M47.66 15.886A22.468 22.468 0 1 0 15.888 47.66" stroke="#3C365A" stroke-width="5"/><path d="M40.68 21.223h12.21V9.013" stroke="#3C365A" stroke-width="5" stroke-linejoin="bevel"/></svg>