<svg width="36" height="28" viewBox="0 0 36 28" fill="none" xmlns="http://www.w3.org/2000/svg">
<path d="M2.51462 7.47573L2.92398 8.25243L1 8.4466L1.28655 9.36893L2.02339 10H4.27485L7.18129 9.07767L8 8.05825V7.13592L7.05848 7.47573L5.66667 7.71845L5.7076 6.40777L5.09357 5.53398L3.66082 5L2.88304 5.87379L2.51462 7.47573Z" fill="#3C365A"/>
<path d="M28.7169 6.95608L28.9374 7.76515L26.886 7.33305L26.9404 8.23134L27.5398 9.01525L29.8805 9.72009L33.1455 9.8214L34.2657 9.18402L34.5092 8.37544L33.4407 8.37859L31.9297 8.15565L32.3183 7.01943L31.9106 6.06118L30.5621 5.14452L29.5228 5.66705L28.7169 6.95608Z" fill="#3C365A"/>
<path d="M21.1871 5.46602L20.4269 6.5534L24 6.82524L23.4678 8.1165L22.0994 9H17.9181L12.5205 7.70874L11 6.28155V4.99029L12.7485 5.46602L15.3333 5.80583L15.2573 3.97087L16.3977 2.74757L19.0585 2L20.5029 3.2233L21.1871 5.46602Z" fill="#3C365A"/>
<path d="M2.71357 12.1266L0.994975 12.4641L0.859297 13.2658L0.361809 13.3924L0.0904523 14.3207L0.58794 14.5316L0 17.1477L0.723618 19.6793L0.271357 19.9325L0.633166 20.903L1.08543 20.9873L1.31156 21.789L2.35176 22H5.83417L8.00502 21.5781L8.1407 20.7764L8.59297 20.6498L8.90955 19.6793L8.41206 19.5105L9 16.9367L8.23116 14.3207L8.72864 14.1519L8.41206 13.1814L7.91457 13.097L7.68844 12.2954L7.1005 12.1266L5.11055 12L2.71357 12.1266Z" fill="#3C365A"/>
<path d="M28.7136 11.1392L26.995 11.5105L26.8593 12.3924L26.3618 12.5316L26.0905 13.5527L26.5879 13.7848L26 16.6624L26.7236 19.4473L26.2714 19.7257L26.6332 20.7932L27.0854 20.8861L27.3116 21.7679L28.3518 22H31.8342L34.005 21.5359L34.1407 20.654L34.593 20.5148L34.9095 19.4473L34.4121 19.2616L35 16.4304L34.2312 13.5527L34.7286 13.3671L34.4121 12.2996L33.9146 12.2068L33.6884 11.3249L33.1005 11.1392L31.1106 11L28.7136 11.1392Z" fill="#3C365A"/>
<path d="M20.0804 11.1899L22.5628 11.6962L22.7588 12.8987L23.4774 13.0886L23.8693 14.481L23.1508 14.7975L24 18.7215L22.9548 22.519L23.608 22.8987L23.0854 24.3544L22.4322 24.481L22.1055 25.6835L20.603 26H15.5729L12.4372 25.3671L12.2412 24.1646L11.5879 23.9747L11.1307 22.519L11.8492 22.2658L11 18.4051L12.1106 14.481L11.392 14.2278L11.8492 12.7722L12.5678 12.6456L12.8945 11.443L13.7437 11.1899L16.6181 11L20.0804 11.1899Z" fill="#3C365A"/>
</svg>
