<svg width="29" height="22" viewBox="0 0 29 22" fill="none" xmlns="http://www.w3.org/2000/svg">
<path d="M6.15115 4.36592C6.54719 2.9798 7.17425 1.79169 7.63629 1.09863C6.94322 1.09863 5.41849 1.11843 4.86404 1.19764C4.17098 1.29665 3.47792 2.38575 2.88387 3.67286C2.40862 4.70255 2.1578 7.33618 2.0918 8.52429H5.45809C5.45809 8.52429 5.82026 5.52407 6.15115 4.36592Z" fill="#3C365A"/>
<path d="M17.2393 8.72268H20.6056C20.7046 8.02962 20.8691 6.18355 21.2986 4.46531C21.6947 2.88117 22.4867 1.56105 22.8828 1.19802L21.3976 1.14851L20.9026 1L19.9125 1.09901C19.3184 1.29703 18.4835 2.62487 17.9323 4.16828C17.4373 5.5544 17.3053 7.56758 17.2393 8.72268Z" fill="#3C365A"/>
<path d="M16.844 4.96035C17.0817 3.45542 18.0652 1.75907 18.5272 1.09901L13.8243 1.0495L11.4728 1.02475L11.2005 1.29703L10.2971 1.01238L9.12137 1C8.3293 1.49504 7.93326 1.89108 7.14119 4.16828C6.50754 5.99004 6.34912 7.89761 6.34912 8.62367H9.12137V8.02962L11.4976 8.12863L13.6758 8.02962V8.72268H16.349C16.415 8.09563 16.6064 6.46528 16.844 4.96035Z" fill="#3C365A"/>
<path d="M6.34912 9.31641L9.12137 9.41541L9.22037 12.8807H11.2996H13.5768L13.63 9.51442H16.25L16.448 15.2569L16.844 17.2371L16.547 18.1282L16.646 20.9994L7.93326 20.7024L6.34912 9.31641Z" fill="#3C365A"/>
<path d="M2.19043 9.31641H5.45772L7.04186 20.6034H4.46763L3.32903 14.9599L2.9825 12.6827L2.47508 11.5936V10.7273L2.19043 9.31641Z" fill="#3C365A"/>
<path d="M20.6064 9.51465H17.1411L17.3392 15.2572L17.6362 17.4353L17.4382 18.1284L17.5372 20.9997H20.1114L20.6064 9.51465Z" fill="#3C365A"/>
<path d="M21.2984 9.51525L26.9419 8.32715L26.3478 11.4954V14.5647L25.8528 17.733L25.4567 18.525L25.2587 19.6141L20.9023 20.9013L21.2984 9.51525Z" fill="#3C365A"/>
<path d="M27.0414 7.73342C27.0414 6.00034 26.7693 4.60251 26.2494 3.37704C25.7295 2.15156 24.9054 1.29785 24.1702 1.29785C23.4349 1.29785 22.8089 2.15156 22.289 3.37704C21.7691 4.60251 21.3979 6.99043 21.3979 8.72351L24.3682 8.12945L27.0414 7.73342Z" fill="#3C365A"/>
<path fill-rule="evenodd" clip-rule="evenodd" d="M11.4974 8.82144L9.61621 8.52441V12.4848H13.1805V8.52441L11.4974 8.82144ZM11.9923 10.1087C11.9923 10.3489 11.8497 10.5559 11.6445 10.6495L11.8929 11.6928H10.9028L11.0945 10.6193C10.9207 10.5157 10.8042 10.3258 10.8042 10.1087C10.8042 9.78061 11.0702 9.51465 11.3983 9.51465C11.7263 9.51465 11.9923 9.78061 11.9923 10.1087Z" fill="#3C365A"/>
</svg>
