<svg width="13" height="16" viewBox="0 0 13 16" fill="none" xmlns="http://www.w3.org/2000/svg">
<path d="M6.49998 12C7.67171 12 8.81281 11.6258 9.75699 10.932C10.7012 10.2381 11.3991 9.26081 11.749 8.14255C12.0989 7.02429 12.0826 5.82351 11.7023 4.71519C11.3221 3.60688 10.5978 2.64896 9.63512 1.98105C8.6724 1.31314 7.52152 0.970137 6.35023 1.00204C5.17894 1.03394 4.04844 1.43908 3.1235 2.1584C2.19856 2.87773 1.52752 3.87365 1.20817 5.00102C0.888819 6.12839 0.937856 7.32829 1.34813 8.42584" stroke="#3C365A" stroke-width="2"/>
<path d="M5.03741 12.6004L8.76474 14.6664L7.10352 8.87305L5.03741 12.6004Z" fill="#3C365A" stroke="#3C365A" stroke-width="1.5" stroke-linejoin="bevel"/>
</svg>
