<svg width="35" height="34" fill="none" xmlns="http://www.w3.org/2000/svg"><circle cx="17.426" cy="17" r="15.5" fill="#FFF6F4" stroke="#3C365A" stroke-width="3"/><path d="m13.677 20.463-1.125-6.382.584-.834-2.481.438.834.584 1.167 4.546-4.129-4.755-2.481.438.834.584 1 5.672-.584.834 2.482-.438-.835-.583-1.167-4.547 4.129 4.755 1.772-.312Zm3.759-6.146 1.126.167.542 1-.521 1.19-2.42.792.063.354.896.939.772.23.647-.48.876-1.251.417.292-.814 1.605-.646.48-1.064.187-1.48-.104-1.314-1.23-.313-1.773.814-1.606 1-.542 1.419-.25Zm-1.23 1.313-.105 1.481 1.647-1.021-.125-.71-.771-.23-.647.48Zm7.509 2.697-.293.418-1.418.25-2.168-4.005-.834-.584 3.545-.625-.521 1.189 1.209 2.711.084-3.67 1.355-.605 1.752 3.712-.208-3.253-.834-.584 2.836-.5-.584.834-.73 4.15-.293.417-1.418.25-1.084-2.002-.396 1.898Z" fill="#3D365A"/></svg>